<svg xmlns="http://www.w3.org/2000/svg" width="1779" height="296" fill="none"><path fill="#3E5879" d="m189.442 56.8-72.4 232.8c-.266 1.067-1.733 1.6-4.4 1.6-2.933 0-4.533-.533-4.8-1.6l-74.8-216.4c-4-11.2-8.267-18.667-12.8-22.4-4.533-4-10.8-6-18.8-6-.8 0-1.2-.8-1.2-2.4 0-1.6.4-2.4 1.2-2.4l10.4.4c6.4.533 13.067.8 20 .8 16.8 0 32.933-.267 48.4-.8 4.533-.267 9.867-.4 16-.4.8 0 1.2.8 1.2 2.4 0 1.6-.4 2.4-1.2 2.4-16.267 0-24.4 6-24.4 18 0 4.267.933 9.067 2.8 14.4l54.8 159.2-18 36.4 72.4-232.8c.8-.8 2.4-1.2 4.8-1.2 2.667 0 4.134.4 4.4 1.2l80.4 198.4-16.8 34.4 51.6-184.8c1.867-7.467 2.8-13.2 2.8-17.2 0-17.333-11.2-26-33.6-26-.533 0-.8-.8-.8-2.4 0-1.6.267-2.4.8-2.4l21.6.4c12.8.533 23.334.8 31.6.8 5.334 0 11.467-.267 18.4-.8l17.2-.4c.534 0 .8.8.8 2.4 0 1.6-.266 2.4-.8 2.4-9.866 0-19.2 3.6-28 10.8-8.533 7.2-14.666 17.6-18.4 31.2l-57.6 202.8c0 1.067-1.466 1.6-4.4 1.6-2.666 0-4.133-.533-4.4-1.6l-80.8-200.8 16.8-32ZM361.505 290c-.8 0-1.2-.8-1.2-2.4 0-1.6.4-2.4 1.2-2.4 9.066 0 15.066-1.867 18-5.6 3.2-3.733 4.8-11.067 4.8-22V53.2c0-9.333-.934-16-2.8-20-1.867-4.267-4.934-6.4-9.2-6.4-4 0-9.467 1.6-16.4 4.8h-.4c-.8 0-1.6-.667-2.4-2-.534-1.6-.4-2.533.4-2.8l55.6-26.4 2-.4c1.066 0 2.133.533 3.2 1.6 1.333 1.067 2 2 2 2.8v253.2c0 10.933 1.466 18.267 4.4 22 3.2 3.733 9.333 5.6 18.4 5.6 1.066 0 1.6.8 1.6 2.4 0 1.6-.534 2.4-1.6 2.4-6.667 0-12-.133-16-.4l-22.8-.4-22.8.4c-4 .267-9.334.4-16 .4Zm107.6 0c-.8 0-1.2-.8-1.2-2.4 0-1.6.4-2.4 1.2-2.4 9.066 0 15.066-1.867 18-5.6 3.2-3.733 4.8-11.067 4.8-22V198c0-14.933-2.8-26-8.4-33.2-5.6-7.2-14.267-10.8-26-10.8-8.8 0-17.6 2.533-26.4 7.6-8.8 4.8-16.134 11.2-22 19.2l-2-4.8c21.333-29.867 44.8-44.8 70.4-44.8 14.4 0 25.733 4.4 34 13.2 8.266 8.8 12.4 20.8 12.4 36v77.2c0 10.933 1.466 18.267 4.4 22 3.2 3.733 9.333 5.6 18.4 5.6 1.066 0 1.6.8 1.6 2.4 0 1.6-.534 2.4-1.6 2.4-6.667 0-12-.133-16-.4l-22.8-.4-22.8.4c-4 .267-9.334.4-16 .4Zm167.153 5.2c-16 0-30.134-3.733-42.4-11.2-12.267-7.733-21.734-18-28.4-30.8-6.667-13.067-10-27.2-10-42.4 0-17.333 4.266-32 12.8-44 8.8-12.267 19.866-21.333 33.2-27.2 13.6-6.133 27.466-9.2 41.6-9.2 16.266 0 30.4 3.867 42.4 11.6 12.266 7.733 21.6 18 28 30.8 6.4 12.533 9.6 26 9.6 40.4 0 16-4 30.267-12 42.8-7.734 12.533-18.267 22.267-31.6 29.2-13.334 6.667-27.734 10-43.2 10Zm12-8c11.733 0 20.8-5.2 27.2-15.6 6.4-10.4 9.6-25.6 9.6-45.6 0-17.867-2.534-33.467-7.6-46.8-4.8-13.333-11.467-23.467-20-30.4-8.267-6.933-17.467-10.4-27.6-10.4-12 0-21.2 4.933-27.6 14.8-6.134 9.867-9.2 24.4-9.2 43.6 0 17.333 2.4 32.933 7.2 46.8 4.8 13.6 11.333 24.267 19.6 32 8.533 7.733 18 11.6 28.4 11.6ZM887.036 56.8l-72.4 232.8c-.267 1.067-1.733 1.6-4.4 1.6-2.933 0-4.533-.533-4.8-1.6l-74.8-216.4c-4-11.2-8.267-18.667-12.8-22.4-4.533-4-10.8-6-18.8-6-.8 0-1.2-.8-1.2-2.4 0-1.6.4-2.4 1.2-2.4l10.4.4c6.4.533 13.067.8 20 .8 16.8 0 32.933-.267 48.4-.8 4.533-.267 9.867-.4 16-.4.8 0 1.2.8 1.2 2.4 0 1.6-.4 2.4-1.2 2.4-16.267 0-24.4 6-24.4 18 0 4.267.933 9.067 2.8 14.4l54.8 159.2-18 36.4 72.4-232.8c.8-.8 2.4-1.2 4.8-1.2 2.667 0 4.133.4 4.4 1.2l80.4 198.4-16.8 34.4L1005.84 88c1.86-7.467 2.8-13.2 2.8-17.2 0-17.333-11.204-26-33.604-26-.533 0-.8-.8-.8-2.4 0-1.6.267-2.4.8-2.4l21.6.4c12.804.533 23.334.8 31.604.8 5.33 0 11.46-.267 18.4-.8l17.2-.4c.53 0 .8.8.8 2.4 0 1.6-.27 2.4-.8 2.4-9.87 0-19.2 3.6-28 10.8-8.54 7.2-14.67 17.6-18.4 31.2l-57.604 202.8c0 1.067-1.467 1.6-4.4 1.6-2.667 0-4.133-.533-4.4-1.6l-80.8-200.8 16.8-32Zm205.574 238c-10.67 0-20.53-2.667-29.6-8-9.07-5.6-16.27-13.6-21.6-24-5.33-10.667-8-23.333-8-38 0-18.933 4.4-35.467 13.2-49.6 9.07-14.4 20.67-25.333 34.8-32.8 14.4-7.733 29.33-11.6 44.8-11.6 9.6 0 18.67 1.6 27.2 4.8 8.53 3.2 15.87 7.867 22 14l-24.8 24.4c0-10.133-3.33-18.533-10-25.2-6.67-6.667-14.93-10-24.8-10-14.13 0-25.33 6.8-33.6 20.4-8.27 13.6-12.4 31.2-12.4 52.8 0 20 3.6 35.733 10.8 47.2 7.2 11.467 17.2 17.2 30 17.2 14.13 0 29.73-7.733 46.8-23.2l3.2 2.8c-11.73 12.267-22.67 21.867-32.8 28.8-10.13 6.667-21.87 10-35.2 10Zm68.8 0c-2.67 0-5.2-3.467-7.6-10.4-2.13-6.933-3.2-15.867-3.2-26.8V146c7.73-2.133 13.47-4 17.2-5.6 3.73-1.867 7.47-4.933 11.2-9.2.27-.267.67-.4 1.2-.4.53 0 1.07.267 1.6.8.8.267 1.2.667 1.2 1.2v114c0 8.267.93 14.267 2.8 18 1.87 3.467 4.93 5.2 9.2 5.2 3.73 0 9.73-1.733 18-5.2h.4c1.07 0 1.87.667 2.4 2 .8 1.067.8 1.867 0 2.4l-52.4 25.2c-.53.267-1.2.4-2 .4Zm166.89-4.8c-.8 0-1.2-.8-1.2-2.4 0-1.6.4-2.4 1.2-2.4 9.07 0 15.07-1.867 18-5.6 2.94-3.733 4.4-11.067 4.4-22v-60c0-14.933-2.8-25.867-8.4-32.8-5.33-7.2-13.86-10.8-25.6-10.8-8.8 0-17.73 2.4-26.8 7.2-8.8 4.8-16 11.2-21.6 19.2l-2-4.8c21.34-29.867 44.8-44.8 70.4-44.8 14.67 0 26 4.4 34 13.2 8.27 8.8 12.4 20.933 12.4 36.4v77.2c0 10.933 1.47 18.267 4.4 22 3.2 3.733 9.34 5.6 18.4 5.6.8 0 1.2.8 1.2 2.4 0 1.6-.4 2.4-1.2 2.4-6.66 0-12-.133-16-.4l-22.8-.4-22.8.4c-4 .267-9.33.4-16 .4Zm-107.6 0c-.8 0-1.2-.8-1.2-2.4 0-1.6.4-2.4 1.2-2.4 9.07 0 15.07-1.867 18-5.6 2.94-3.733 4.4-11.067 4.4-22v-76.4c0-8.533-1.06-14.8-3.2-18.8-1.86-4-5.06-6-9.6-6-4 0-10.66 2-20 6h-.4c-1.06 0-1.86-.667-2.4-2-.53-1.333-.4-2.133.4-2.4l52.4-25.6c1.6-.533 2.54-.8 2.8-.8 2.94 0 5.74 3.333 8.4 10 2.67 6.667 4 15.333 4 26v90c0 10.933 1.47 18.267 4.4 22 3.2 3.733 9.34 5.6 18.4 5.6.8 0 1.2.8 1.2 2.4 0 1.6-.4 2.4-1.2 2.4-6.66 0-12-.133-16-.4l-22.8-.4-23.2.4c-3.73.267-8.93.4-15.6.4Zm254.98 4.8c-11.47 0-21.2-2.667-29.2-8-7.73-5.6-11.6-14.8-11.6-27.6v-90.4c0-8.8-1.47-14.667-4.4-17.6-2.67-2.933-8-4.4-16-4.4-.27 0-.67-.267-1.2-.8-.27-.8-.4-1.6-.4-2.4 0-.8.13-1.467.4-2 .53-.8.93-1.2 1.2-1.2 25.07-1.067 40.8-11.867 47.2-32.4.27-1.067 1.33-1.6 3.2-1.6s2.8.533 2.8 1.6v138c0 10.4 2.53 18.133 7.6 23.2 5.33 4.8 12.67 7.2 22 7.2 11.2 0 21.73-3.867 31.6-11.6l.8-.4c.8 0 1.47.667 2 2 .8 1.067.8 1.867 0 2.4-9.87 9.067-19.2 15.733-28 20-8.8 4-18.13 6-28 6Zm43.6-139.2c-19.2-4.267-40.27-6.4-63.2-6.4v-9.6c17.07 0 38.67-1.333 64.8-4 .53 0 1.07 1.067 1.6 3.2.8 1.867 1.2 4 1.2 6.4 0 2.4-.53 4.8-1.6 7.2-.8 2.4-1.73 3.467-2.8 3.2Zm91.97 102c0 8.267.66 14.267 2 18 1.6 3.733 4.4 6.267 8.4 7.6 4.26 1.333 10.93 2 20 2 .8 0 1.2.8 1.2 2.4 0 1.6-.4 2.4-1.2 2.4-8.54 0-15.34-.133-20.4-.4l-29.6-.4-28.8.4c-5.07.267-12 .4-20.8.4-.8 0-1.2-.8-1.2-2.4 0-1.6.4-2.4 1.2-2.4 9.06 0 15.6-.667 19.6-2 4.26-1.333 7.2-3.867 8.8-7.6 1.6-4 2.4-10 2.4-18V72.4c0-8-.8-13.867-2.4-17.6-1.6-3.733-4.54-6.267-8.8-7.6-4-1.6-10.54-2.4-19.6-2.4-.8 0-1.2-.8-1.2-2.4 0-1.6.4-2.4 1.2-2.4l20.8.4c11.73.533 21.33.8 28.8.8 8.26 0 18.26-.267 30-.8l20-.4c.8 0 1.2.8 1.2 2.4 0 1.6-.4 2.4-1.2 2.4-8.8 0-15.34.8-19.6 2.4-4.27 1.6-7.2 4.4-8.8 8.4-1.34 3.733-2 9.6-2 17.6v184.4Zm110.74 37.2c-11.46 0-21.2-2.667-29.2-8-7.73-5.6-11.6-14.8-11.6-27.6v-90.4c0-8.8-1.46-14.667-4.4-17.6-2.66-2.933-8-4.4-16-4.4-.26 0-.66-.267-1.2-.8-.26-.8-.4-1.6-.4-2.4 0-.8.14-1.467.4-2 .54-.8.94-1.2 1.2-1.2 25.07-1.067 40.8-11.867 47.2-32.4.27-1.067 1.34-1.6 3.2-1.6 1.87 0 2.8.533 2.8 1.6v138c0 10.4 2.54 18.133 7.6 23.2 5.34 4.8 12.67 7.2 22 7.2 11.2 0 21.74-3.867 31.6-11.6l.8-.4c.8 0 1.47.667 2 2 .8 1.067.8 1.867 0 2.4-9.86 9.067-19.2 15.733-28 20-8.8 4-18.13 6-28 6Zm43.6-139.2c-19.2-4.267-40.26-6.4-63.2-6.4v-9.6c17.07 0 38.67-1.333 64.8-4 .54 0 1.07 1.067 1.6 3.2.8 1.867 1.2 4 1.2 6.4 0 2.4-.53 4.8-1.6 7.2-.8 2.4-1.73 3.467-2.8 3.2Z"/></svg>