<svg width="1680" height="960" viewBox="0 0 1680 960" fill="none" xmlns="http://www.w3.org/2000/svg">
<g clip-path="url(#clip0_2271_843)">
<rect width="1680" height="960" fill="white"/>
<path d="M0 0H1680V960H0V0Z" fill="#E5E5E5"/>
<path d="M0.5 959.138V0.86159L838.992 480L0.5 959.138ZM1.88282 959.5L840 480.576L1678.12 959.5H1.88282ZM1679.5 959.138L841.008 480L1679.5 0.861577V959.138ZM1678.12 0.5L840 479.424L1.88278 0.5H1678.12Z" stroke="black" stroke-opacity="0.3"/>
<path d="M184.633 372.219V375.883C184.633 379.629 184.633 384.031 183.484 389.773H190.266V393.273H146.023V389.773H179.164C179.629 387.449 179.93 385.371 180.094 383.484L151 384.742L150.453 381.297L180.312 380.367C180.367 378.809 180.367 377.305 180.367 375.883V375.719H151.602V372.219H184.633ZM185.016 397.977V409.188H155.594V414.328H186.711V417.773H151.328V405.906H180.75V401.312H151.219V397.977H185.016ZM231.152 369.812V389.172H239.301V392.781H231.152V418.539H226.887V369.812H231.152ZM217.535 374.352V391.742H199.816V403.117C208.84 403.117 215.129 402.816 222.512 401.422L222.949 404.977C215.293 406.398 208.785 406.727 199.433 406.781H195.551V388.188H213.269V377.906H195.441V374.352H217.535ZM285.547 397.703V401.312H265.257V418.43H261.047V401.312H241.031V397.703H285.547ZM263.179 371.781C273.406 371.781 280.297 375.883 280.297 382.5C280.297 388.953 273.406 393.055 263.179 393.055C252.953 393.055 246.062 388.953 246.062 382.5C246.062 375.883 252.953 371.781 263.179 371.781ZM263.179 375.281C255.578 375.281 250.437 378.125 250.492 382.5C250.437 386.82 255.578 389.609 263.179 389.609C270.726 389.609 275.922 386.82 275.922 382.5C275.922 378.125 270.726 375.281 263.179 375.281ZM327.91 393.219V396.773H294.332V374.352H327.417V377.906H298.597V393.219H327.91ZM333.16 408.203V411.812H288.644V408.203H333.16ZM389.722 369.812V405.852H385.402V387.148H376.488V383.594H385.402V369.812H389.722ZM376.816 374.188V377.742H371.839V393.492C374.273 393.328 376.652 393.082 378.894 392.781L379.167 395.953C369.488 397.648 358.222 397.812 350.073 397.812L349.527 394.148L355.816 394.094V377.742H350.894V374.188H376.816ZM391.034 413.781V417.391H358.386V402.68H362.706V413.781H391.034ZM359.972 394.039C362.488 393.984 365.058 393.902 367.628 393.766V377.742H359.972V394.039ZM437.116 369.812V399.781H432.851V369.812H437.116ZM423.007 373.641V377.195H404.249V391.414C414.694 391.414 420.765 391.086 427.819 389.664L428.312 393.273C420.983 394.641 414.749 394.914 403.976 394.969H399.983V373.641H423.007ZM420.874 399.781C430.991 399.781 437.226 403.227 437.28 409.078C437.226 414.984 430.991 418.375 420.874 418.43C410.648 418.375 404.468 414.984 404.468 409.078C404.468 403.227 410.648 399.781 420.874 399.781ZM420.874 403.227C413.327 403.227 408.788 405.414 408.788 409.078C408.788 412.742 413.327 414.93 420.874 414.93C428.366 414.93 433.015 412.742 433.015 409.078C433.015 405.414 428.366 403.227 420.874 403.227ZM172.09 439.18V441.465H146.742V439.18H158.133V435.418H160.84V439.18H172.09ZM173.883 455.844V458.129H160.84V466.918H158.133V458.129H145.266V455.844H173.883ZM159.504 443.258C165.867 443.258 169.699 445.121 169.699 448.496C169.699 451.801 165.867 453.664 159.504 453.699C153.105 453.664 149.273 451.801 149.309 448.496C149.273 445.121 153.105 443.258 159.504 443.258ZM159.504 445.367C154.828 445.367 152.121 446.527 152.156 448.496C152.121 450.43 154.828 451.555 159.504 451.555C164.109 451.555 166.816 450.43 166.852 448.496C166.816 446.527 164.109 445.367 159.504 445.367ZM201.608 435.629V459.359H198.831V456.125H192.362V454.121H198.831V435.629H201.608ZM202.382 463.859V466.18H180.163V457.039H182.94V463.859H202.382ZM175.663 450.113C181.499 450.078 189.304 450.043 196.019 449.199L196.194 451.203C193.399 451.643 190.481 451.924 187.616 452.082V458.27H184.839V452.223C181.675 452.363 178.669 452.381 176.05 452.363L175.663 450.113ZM185.929 436.895C190.499 436.895 193.628 439.074 193.663 442.344C193.628 445.684 190.499 447.758 185.929 447.758C181.323 447.758 178.194 445.684 178.194 442.344C178.194 439.074 181.323 436.895 185.929 436.895ZM185.929 439.004C182.87 438.969 180.796 440.34 180.831 442.344C180.796 444.383 182.87 445.719 185.929 445.719C188.882 445.719 190.991 444.383 191.026 442.344C190.991 440.34 188.882 438.969 185.929 439.004ZM240.817 435.629V459.465H238.04V452.75H232.626V450.5H238.04V446.246H232.626V443.961H238.04V435.629H240.817ZM232.626 439.461V441.711H214.942V439.461H222.536V435.594H225.278V439.461H232.626ZM223.872 443.434C228.056 443.434 231.009 445.824 231.009 449.41C231.009 452.961 228.056 455.387 223.872 455.387C219.689 455.387 216.771 452.961 216.806 449.41C216.771 445.824 219.689 443.434 223.872 443.434ZM223.872 445.613C221.2 445.648 219.372 447.16 219.372 449.41C219.372 451.66 221.2 453.172 223.872 453.172C226.544 453.172 228.372 451.66 228.407 449.41C228.372 447.16 226.544 445.648 223.872 445.613ZM241.521 463.859V466.18H220.603V457.355H223.38V463.859H241.521ZM269.879 435.629V445.051H274.555V447.371H269.879V456.828H267.102V435.629H269.879ZM259.789 457.215C266.293 457.18 270.055 458.902 270.09 462.031C270.055 465.16 266.293 466.812 259.789 466.848C253.25 466.812 249.524 465.16 249.524 462.031C249.524 458.902 253.25 457.18 259.789 457.215ZM259.789 459.289C254.973 459.254 252.266 460.273 252.301 462.031C252.266 463.719 254.973 464.738 259.789 464.738C264.57 464.738 267.277 463.719 267.277 462.031C267.277 460.273 264.57 459.254 259.789 459.289ZM245.34 453.172C247.854 453.172 250.772 453.154 253.813 453.066V450.57C250.156 450.271 247.836 448.637 247.836 446.176C247.836 443.398 250.719 441.746 255.149 441.746C259.613 441.746 262.461 443.398 262.496 446.176C262.461 448.619 260.211 450.254 256.555 450.57V452.926C259.49 452.803 262.444 452.574 265.168 452.188L265.414 454.121C258.699 455.281 251.211 455.387 245.656 455.387L245.34 453.172ZM264.219 438.301V440.445H246.113V438.301H253.813V435.348H256.555V438.301H264.219ZM255.149 443.68C252.266 443.68 250.473 444.664 250.473 446.176C250.473 447.758 252.266 448.707 255.149 448.707C258.031 448.707 259.86 447.758 259.86 446.176C259.86 444.664 258.031 443.68 255.149 443.68ZM279.359 464.211C278.128 464.211 277.073 463.191 277.109 461.926C277.073 460.695 278.128 459.676 279.359 459.676C280.589 459.676 281.609 460.695 281.609 461.926C281.609 463.191 280.589 464.211 279.359 464.211ZM287.959 464.211C286.729 464.211 285.674 463.191 285.709 461.926C285.674 460.695 286.729 459.676 287.959 459.676C289.19 459.676 290.209 460.695 290.209 461.926C290.209 463.191 289.19 464.211 287.959 464.211ZM326.325 438.934V442.062C326.325 446 326.325 450.465 325.164 457.25L322.352 456.969C323.617 450.57 323.617 445.895 323.617 442.062V441.219H304.774V438.934H326.325ZM330.157 459.957V462.242H301.68V459.957H330.157ZM358.163 435.629V456.793H355.386V446.738H348.531V444.418H355.386V435.629H358.163ZM348.39 438.09C348.355 446.105 343.011 451.871 334.011 454.754L332.781 452.539C340.251 450.236 344.857 445.895 345.437 440.34H334.327V438.09H348.39ZM349.374 455.492C349.374 460.062 354.367 463.473 359.886 464.457L358.726 466.672C354.12 465.775 349.884 463.367 348.038 459.711C346.122 463.385 341.833 465.828 337.175 466.742L336.05 464.562C341.57 463.613 346.632 460.098 346.667 455.492V454.051H349.374V455.492ZM388.596 435.594V466.918H385.819V435.594H388.596ZM371.967 438.02C376.608 438.055 379.948 442.273 379.948 448.918C379.948 455.562 376.608 459.781 371.967 459.781C367.291 459.781 363.987 455.562 363.987 448.918C363.987 442.273 367.291 438.055 371.967 438.02ZM371.967 440.48C368.838 440.516 366.659 443.82 366.659 448.918C366.659 454.016 368.838 457.32 371.967 457.32C375.096 457.32 377.276 454.016 377.276 448.918C377.276 443.82 375.096 440.516 371.967 440.48ZM426.329 435.594V442.379H431.04V444.699H426.329V451.52H423.586V435.594H426.329ZM426.329 452.996V460.625H409.172V464.211H427.489V466.426H406.465V458.516H423.586V455.211H406.395V452.996H426.329ZM410.614 436.754C415.325 436.789 418.735 439.602 418.735 443.68C418.735 447.793 415.325 450.641 410.614 450.641C405.938 450.641 402.457 447.793 402.493 443.68C402.457 439.602 405.938 436.789 410.614 436.754ZM410.614 439.074C407.485 439.039 405.165 440.973 405.2 443.68C405.165 446.422 407.485 448.391 410.614 448.391C413.743 448.391 416.028 446.422 416.028 443.68C416.028 440.973 413.743 439.039 410.614 439.074ZM457.535 438.758V441.887C457.5 445.719 457.5 450.008 456.375 456.301L453.562 455.984C454.757 450.008 454.757 445.613 454.757 441.887V441.043H435.492V438.758H457.535ZM460.945 460.133V462.418H432.468V460.133H443.648V448.953H446.355V460.133H460.945ZM497.341 435.629V452.996H494.599V435.629H497.341ZM482.611 439.848C482.576 444.172 485.951 448.074 490.591 449.586L489.255 451.766C485.564 450.518 482.646 447.916 481.24 444.523C479.834 448.162 476.88 451.01 473.154 452.328L471.748 450.148C476.459 448.496 479.798 444.383 479.798 439.848V436.789H482.611V439.848ZM497.552 454.859V457.109H493.228V464.176H497.869V466.426H476.248V464.176H480.923V457.109H476.529V454.859H497.552ZM483.63 464.176H490.486V457.109H483.63V464.176ZM526.297 435.594V447.969H531.536V450.289H526.297V466.918H523.555V435.594H526.297ZM518.071 438.652V440.938H506.223V456.758C511.883 456.758 515.891 456.494 520.532 455.633L520.883 458.023C515.997 458.902 511.883 459.078 505.942 459.078H503.481V438.652H518.071Z" fill="black"/>
</g>
<defs>
<clipPath id="clip0_2271_843">
<rect width="1680" height="960" fill="white"/>
</clipPath>
</defs>
</svg>
