<svg width="1680" height="960" viewBox="0 0 1680 960" fill="none" xmlns="http://www.w3.org/2000/svg">
<g clip-path="url(#clip0_2610_336)">
<rect width="1680" height="960" fill="white"/>
<path d="M0 0H1680V960H0V0Z" fill="#E5E5E5"/>
<path d="M0.5 959.138V0.86159L838.992 480L0.5 959.138ZM1.88282 959.5L840 480.576L1678.12 959.5H1.88282ZM1679.5 959.138L841.008 480L1679.5 0.861577V959.138ZM1678.12 0.5L840 479.424L1.88278 0.5H1678.12Z" stroke="black" stroke-opacity="0.3"/>
<path d="M177.516 420.406V426.039H136.664V420.406H153.672V415.211H160.617V420.406H177.516ZM134.477 453.109V447.422H180.031V453.109H160.617V465.086H153.672V453.109H134.477ZM140 436.484C139.973 430.961 146.398 427.953 157.172 427.953C167.863 427.953 174.316 430.961 174.344 436.484C174.316 441.98 167.863 444.988 157.172 445.016C146.398 444.988 139.973 441.98 140 436.484ZM147.219 436.484C147.219 438.754 150.5 439.82 157.172 439.82C163.762 439.82 167.07 438.754 167.07 436.484C167.07 434.215 163.762 433.121 157.172 433.094C150.5 433.121 147.219 434.215 147.219 436.484ZM224.199 415.32V452.891H217.199V448.953H207.683V444.195H217.199V415.32H224.199ZM181.871 437.359C190.976 437.305 203.281 437.168 213.808 435.883L214.191 440.859C210.254 441.516 206.18 441.98 202.16 442.281V451.742H195.16V458.578H225.293V464.156H188.215V449.281H195.16V442.691C190.703 442.855 186.465 442.883 182.691 442.883L181.871 437.359ZM185.535 425.93C185.535 420.625 190.648 416.988 198.058 417.016C205.277 416.988 210.445 420.625 210.472 425.93C210.445 431.262 205.277 434.707 198.058 434.68C190.648 434.707 185.535 431.262 185.535 425.93ZM192.152 425.93C192.125 428.336 194.504 429.676 198.058 429.648C201.394 429.676 203.801 428.336 203.855 425.93C203.801 423.469 201.394 422.102 198.058 422.102C194.504 422.102 192.125 423.469 192.152 425.93ZM283.605 415.32V453.219H276.66V443.812H269.933V438.289H276.66V433.312H269.933V427.68H276.66V415.32H283.605ZM241.769 426.039V420.516H252.488V415.211H259.433V420.516H269.441V426.039H241.769ZM244.23 437.578C244.175 431.836 249.125 427.789 255.878 427.789C262.714 427.789 267.636 431.836 267.691 437.578C267.636 443.32 262.714 447.312 255.878 447.312C249.125 447.312 244.175 443.32 244.23 437.578ZM250.464 464.156V449.992H257.519V458.578H284.644V464.156H250.464ZM250.738 437.578C250.71 440.449 252.843 442.008 255.878 442.008C258.886 442.008 261.101 440.449 261.128 437.578C261.101 434.789 258.886 433.23 255.878 433.203C252.843 433.23 250.71 434.789 250.738 437.578ZM329.031 415.32V429.43H335.374V435.172H329.031V448.898H322.031V415.32H329.031ZM288.671 442.281C292.308 442.281 296.437 442.254 300.757 442.145V439.219C295.316 438.48 291.98 435.965 292.007 432.273C291.98 427.844 296.765 425.137 304.202 425.164C311.585 425.137 316.37 427.844 316.398 432.273C316.37 435.965 313.062 438.48 307.702 439.219V441.871C311.777 441.68 315.878 441.352 319.734 440.859L320.226 445.562C309.644 447.395 298.187 447.531 289.382 447.531L288.671 442.281ZM289.984 423.961V418.82H300.757V414.883H307.702V418.82H318.476V423.961H289.984ZM295.234 457.211C295.234 452.125 301.386 449.281 312.242 449.336C323.015 449.281 329.195 452.125 329.195 457.211C329.195 462.352 323.015 465.086 312.242 465.086C301.386 465.086 295.234 462.352 295.234 457.211ZM298.679 432.273C298.652 434.023 300.648 434.871 304.202 434.898C307.702 434.871 309.699 434.023 309.726 432.273C309.699 430.633 307.702 429.73 304.202 429.703C300.648 429.73 298.652 430.633 298.679 432.273ZM302.234 457.211C302.206 459.098 305.351 460.027 312.242 460C319.023 460.027 322.167 459.098 322.195 457.211C322.167 455.27 319.023 454.367 312.242 454.367C305.351 454.367 302.206 455.27 302.234 457.211ZM157.969 487.938V489.969H135.438V487.938H145.562V484.594H147.969V487.938H157.969ZM134.125 504.781V502.75H159.562V504.781H147.969V512.594H145.562V504.781H134.125ZM137.719 496.219C137.688 493.219 141.094 491.562 146.781 491.562C152.422 491.562 155.828 493.219 155.844 496.219C155.828 499.156 152.422 500.812 146.781 500.844C141.094 500.812 137.688 499.156 137.719 496.219ZM140.25 496.219C140.219 497.938 142.641 498.953 146.781 498.938C150.875 498.953 153.281 497.938 153.312 496.219C153.281 494.469 150.875 493.453 146.781 493.438C142.641 493.453 140.219 494.469 140.25 496.219ZM184.208 484.781V505.875H181.739V503H175.989V501.219H181.739V484.781H184.208ZM161.145 497.656C166.317 497.625 173.286 497.578 179.239 496.844L179.395 498.625C176.926 499.016 174.317 499.266 171.77 499.422V504.906H169.301V499.547C166.489 499.656 163.817 499.656 161.489 499.656L161.145 497.656ZM163.395 490.75C163.379 487.828 166.161 485.906 170.27 485.906C174.348 485.906 177.129 487.828 177.145 490.75C177.129 493.719 174.348 495.562 170.27 495.562C166.161 495.562 163.379 493.719 163.395 490.75ZM165.145 511.938V503.812H167.614V509.875H184.895V511.938H165.145ZM165.739 490.75C165.708 492.562 167.551 493.734 170.27 493.75C172.911 493.734 174.786 492.562 174.801 490.75C174.786 488.969 172.911 487.75 170.27 487.781C167.551 487.75 165.708 488.969 165.739 490.75ZM219.06 484.781V505.969H216.591V500H211.779V498H216.591V494.219H211.779V492.188H216.591V484.781H219.06ZM196.06 490.188V488.188H202.81V484.75H205.248V488.188H211.779V490.188H196.06ZM197.716 497.031C197.685 493.844 200.279 491.719 203.998 491.719C207.716 491.719 210.326 493.844 210.341 497.031C210.326 500.188 207.716 502.328 203.998 502.344C200.279 502.328 197.685 500.188 197.716 497.031ZM199.998 497.031C199.982 499.031 201.623 500.391 203.998 500.375C206.373 500.391 208.013 499.031 208.029 497.031C208.013 495.031 206.373 493.688 203.998 493.656C201.623 493.688 199.982 495.031 199.998 497.031ZM201.091 511.938V504.094H203.56V509.875H219.685V511.938H201.091ZM244.893 484.781V493.156H249.049V495.219H244.893V503.625H242.424V484.781H244.893ZM223.08 500.375C225.299 500.375 227.908 500.375 230.611 500.281V498.078C227.346 497.781 225.283 496.359 225.299 494.156C225.283 491.672 227.846 490.219 231.799 490.219C235.752 490.219 238.299 491.672 238.33 494.156C238.299 496.344 236.283 497.766 233.049 498.062V500.188C235.643 500.062 238.268 499.844 240.705 499.5L240.924 501.219C234.939 502.266 228.283 502.359 223.361 502.344L223.08 500.375ZM223.768 489.062V487.156H230.611V484.531H233.049V487.156H239.861V489.062H223.768ZM226.799 508.25C226.783 505.469 230.127 503.938 235.924 503.969C241.705 503.938 245.064 505.469 245.08 508.25C245.064 511.016 241.705 512.5 235.924 512.531C230.127 512.5 226.783 511.016 226.799 508.25ZM227.643 494.156C227.627 495.547 229.236 496.406 231.799 496.406C234.361 496.406 235.986 495.547 235.986 494.156C235.986 492.812 234.361 491.922 231.799 491.938C229.236 491.922 227.627 492.812 227.643 494.156ZM229.268 508.25C229.236 509.75 231.643 510.656 235.924 510.656C240.174 510.656 242.564 509.75 242.58 508.25C242.564 506.688 240.174 505.781 235.924 505.812C231.643 505.781 229.236 506.688 229.268 508.25ZM253.319 510.188C252.225 510.172 251.287 509.266 251.319 508.156C251.287 507.062 252.225 506.156 253.319 506.156C254.428 506.156 255.334 507.062 255.319 508.156C255.334 509.266 254.428 510.172 253.319 510.188ZM260.964 510.188C259.87 510.172 258.933 509.266 258.964 508.156C258.933 507.062 259.87 506.156 260.964 506.156C262.073 506.156 262.979 507.062 262.964 508.156C262.979 509.266 262.073 510.172 260.964 510.188ZM295.066 487.719V490.5C295.066 494 295.066 497.953 294.035 504L291.535 503.75C292.66 498.062 292.66 493.906 292.66 490.5V489.75H275.91V487.719H295.066ZM273.16 508.438V506.406H298.473V508.438H273.16ZM323.367 484.781V503.594H320.899V494.656H314.805V492.594H320.899V484.781H323.367ZM300.805 499.812C307.446 497.766 311.555 493.906 312.071 488.969H302.18V486.969H314.68C314.664 494.094 309.883 499.219 301.899 501.781L300.805 499.812ZM303.711 510.5C308.633 509.641 313.117 506.531 313.149 502.438V501.156H315.555V502.438C315.571 506.484 320.008 509.531 324.899 510.406L323.867 512.375C319.774 511.594 315.992 509.422 314.352 506.172C312.664 509.453 308.852 511.625 304.711 512.438L303.711 510.5ZM350.419 484.75V512.594H347.95V484.75H350.419ZM328.544 496.594C328.559 490.688 331.497 486.922 335.637 486.906C339.762 486.922 342.747 490.688 342.731 496.594C342.747 502.516 339.762 506.266 335.637 506.25C331.497 506.266 328.559 502.516 328.544 496.594ZM330.919 496.594C330.919 501.109 332.856 504.078 335.637 504.062C338.434 504.078 340.356 501.109 340.356 496.594C340.356 492.078 338.434 489.109 335.637 489.094C332.856 489.109 330.919 492.078 330.919 496.594ZM383.959 484.75V490.781H388.146V492.844H383.959V498.906H381.521V484.75H383.959ZM362.771 491.938C362.756 488.297 365.818 485.797 369.99 485.781C374.178 485.797 377.209 488.297 377.209 491.938C377.209 495.594 374.178 498.109 369.99 498.125C365.818 498.109 362.756 495.594 362.771 491.938ZM365.178 491.938C365.162 494.375 367.209 496.125 369.99 496.125C372.756 496.125 374.818 494.375 374.803 491.938C374.818 489.531 372.756 487.812 369.99 487.844C367.209 487.812 365.162 489.531 365.178 491.938ZM366.24 502.188V500.219H383.959V507H368.709V510.188H384.99V512.156H366.303V505.125H381.521V502.188H366.24ZM411.697 487.562V490.344C411.666 493.75 411.666 497.562 410.666 503.156L408.166 502.875C409.213 497.562 409.213 493.672 409.229 490.344V489.594H392.104V487.562H411.697ZM389.416 508.594V506.562H399.354V496.625H401.76V506.562H414.729V508.594H389.416ZM447.081 484.781V500.219H444.644V484.781H447.081ZM424.331 497.688C428.519 496.234 431.487 492.562 431.487 488.531V485.812H433.987V488.531C433.956 492.391 436.956 495.828 441.081 497.188L439.894 499.125C436.628 498.016 434.019 495.688 432.769 492.703C431.519 495.906 428.894 498.438 425.581 499.625L424.331 497.688ZM428.331 512.156V510.156H432.487V503.875H428.581V501.875H447.269V503.875H443.425V510.156H447.55V512.156H428.331ZM434.894 510.156H440.987V503.875H434.894V510.156ZM472.82 484.75V495.75H477.476V497.812H472.82V512.594H470.383V484.75H472.82ZM452.539 505.625V487.469H465.508V489.5H454.976V503.562C460.008 503.547 463.554 503.328 467.695 502.562L468.008 504.688C463.648 505.469 460.008 505.625 454.726 505.625H452.539Z" fill="black"/>
</g>
<defs>
<clipPath id="clip0_2610_336">
<rect width="1680" height="960" fill="white"/>
</clipPath>
</defs>
</svg>
